<svg width="21" height="21" viewBox="0 0 21 21" fill="none" xmlns="http://www.w3.org/2000/svg">
<path d="M12.9375 13.5C13.3851 13.5 13.8143 13.6778 14.1307 13.9943C14.4472 14.3107 14.625 14.7399 14.625 15.1875V16.314L14.619 16.395C14.3865 17.9903 12.954 18.7568 10.5503 18.7568C8.1555 18.7568 6.69975 17.9992 6.3855 16.4227L6.375 16.3125V15.1875C6.375 14.7399 6.55279 14.3107 6.86926 13.9943C7.18573 13.6778 7.61495 13.5 8.0625 13.5H12.9375ZM12.9375 14.625H8.0625C7.91332 14.625 7.77024 14.6843 7.66475 14.7898C7.55926 14.8952 7.5 15.0383 7.5 15.1875V16.2525C7.71 17.1525 8.6625 17.6318 10.5503 17.6318C12.4373 17.6318 13.3477 17.1585 13.5 16.2698V15.1875C13.5 15.0383 13.4407 14.8952 13.3352 14.7898C13.2298 14.6843 13.0867 14.625 12.9375 14.625ZM13.683 8.99925L17.8125 9C18.2601 9 18.6893 9.17779 19.0057 9.49426C19.3222 9.81073 19.5 10.2399 19.5 10.6875V11.814L19.494 11.895C19.2615 13.4902 17.829 14.2568 15.4252 14.2568L15.189 14.2545C14.9675 13.7206 14.5638 13.2826 14.0497 13.0185C14.436 13.0935 14.8935 13.1318 15.4252 13.1318C17.3122 13.1318 18.2227 12.6585 18.375 11.7697V10.6875C18.375 10.5383 18.3157 10.3952 18.2102 10.2898C18.1048 10.1843 17.9617 10.125 17.8125 10.125H13.875C13.875 9.7305 13.8075 9.351 13.683 8.99925ZM3.1875 9L7.317 8.99925C7.21109 9.29886 7.14822 9.61198 7.13025 9.92925L7.125 10.125H3.1875C3.03832 10.125 2.89524 10.1843 2.78975 10.2898C2.68426 10.3952 2.625 10.5383 2.625 10.6875V11.7525C2.835 12.6525 3.7875 13.1318 5.67525 13.1318C6.14175 13.1318 6.54825 13.1025 6.89925 13.0455C6.40834 13.3123 6.02371 13.7392 5.8095 14.2552L5.6745 14.2568C3.2805 14.2568 1.82475 13.4993 1.5105 11.9228L1.5 11.8125V10.6875C1.5 10.2399 1.67779 9.81073 1.99426 9.49426C2.31072 9.17779 2.73995 9 3.1875 9ZM10.5 7.5C11.1962 7.5 11.8639 7.77656 12.3562 8.26884C12.8484 8.76113 13.125 9.42881 13.125 10.125C13.125 10.8212 12.8484 11.4889 12.3562 11.9812C11.8639 12.4734 11.1962 12.75 10.5 12.75C9.80381 12.75 9.13613 12.4734 8.64384 11.9812C8.15156 11.4889 7.875 10.8212 7.875 10.125C7.875 9.42881 8.15156 8.76113 8.64384 8.26884C9.13613 7.77656 9.80381 7.5 10.5 7.5ZM10.5 8.625C10.1022 8.625 9.72064 8.78304 9.43934 9.06434C9.15804 9.34564 9 9.72718 9 10.125C9 10.5228 9.15804 10.9044 9.43934 11.1857C9.72064 11.467 10.1022 11.625 10.5 11.625C10.8978 11.625 11.2794 11.467 11.5607 11.1857C11.842 10.9044 12 10.5228 12 10.125C12 9.72718 11.842 9.34564 11.5607 9.06434C11.2794 8.78304 10.8978 8.625 10.5 8.625ZM15.375 3C16.0712 3 16.7389 3.27656 17.2312 3.76884C17.7234 4.26113 18 4.92881 18 5.625C18 6.32119 17.7234 6.98887 17.2312 7.48116C16.7389 7.97344 16.0712 8.25 15.375 8.25C14.6788 8.25 14.0111 7.97344 13.5188 7.48116C13.0266 6.98887 12.75 6.32119 12.75 5.625C12.75 4.92881 13.0266 4.26113 13.5188 3.76884C14.0111 3.27656 14.6788 3 15.375 3ZM5.625 3C6.32119 3 6.98887 3.27656 7.48116 3.76884C7.97344 4.26113 8.25 4.92881 8.25 5.625C8.25 6.32119 7.97344 6.98887 7.48116 7.48116C6.98887 7.97344 6.32119 8.25 5.625 8.25C4.92881 8.25 4.26113 7.97344 3.76884 7.48116C3.27656 6.98887 3 6.32119 3 5.625C3 4.92881 3.27656 4.26113 3.76884 3.76884C4.26113 3.27656 4.92881 3 5.625 3ZM15.375 4.125C14.9772 4.125 14.5956 4.28304 14.3143 4.56434C14.033 4.84564 13.875 5.22718 13.875 5.625C13.875 6.02282 14.033 6.40436 14.3143 6.68566C14.5956 6.96696 14.9772 7.125 15.375 7.125C15.7728 7.125 16.1544 6.96696 16.4357 6.68566C16.717 6.40436 16.875 6.02282 16.875 5.625C16.875 5.22718 16.717 4.84564 16.4357 4.56434C16.1544 4.28304 15.7728 4.125 15.375 4.125ZM5.625 4.125C5.22718 4.125 4.84564 4.28304 4.56434 4.56434C4.28304 4.84564 4.125 5.22718 4.125 5.625C4.125 6.02282 4.28304 6.40436 4.56434 6.68566C4.84564 6.96696 5.22718 7.125 5.625 7.125C6.02282 7.125 6.40436 6.96696 6.68566 6.68566C6.96696 6.40436 7.125 6.02282 7.125 5.625C7.125 5.22718 6.96696 4.84564 6.68566 4.56434C6.40436 4.28304 6.02282 4.125 5.625 4.125Z" fill="#33363A"/>
</svg>
